<svg width="56" height="53" viewBox="0 0 56 53" fill="none" xmlns="http://www.w3.org/2000/svg">
<path d="M28.0651 16.4345C22.4575 16.4345 17.8888 20.8616 17.8888 26.2952C17.8888 31.7289 22.4575 36.1559 28.0651 36.1559C33.6726 36.1559 38.2414 31.7289 38.2414 26.2952C38.2414 20.8616 33.6726 16.4345 28.0651 16.4345ZM54.1842 24.7031L44.1457 19.8447L47.6968 9.53202C48.1738 8.13508 46.8064 6.81005 45.3753 7.28254L34.7327 10.7235L29.7081 0.986071C29.0297 -0.32869 27.1005 -0.32869 26.422 0.986071L21.4081 10.7132L10.7548 7.27227C9.31317 6.81005 7.94573 8.13508 8.43335 9.52175L11.9844 19.8344L1.94597 24.7031C0.589136 25.3605 0.589136 27.2299 1.94597 27.8873L11.9844 32.7458L8.43335 43.0687C7.95634 44.4656 9.32377 45.7907 10.7548 45.3182L21.3975 41.8772L26.4114 51.6044C27.0899 52.9191 29.0191 52.9191 29.6975 51.6044L34.7115 41.8772L45.3541 45.3182C46.7958 45.7804 48.1632 44.4554 47.6756 43.0687L44.1245 32.756L54.163 27.8976C55.541 27.2299 55.541 25.3605 54.1842 24.7031ZM37.6583 35.591C32.3688 40.7165 23.7614 40.7165 18.4718 35.591C13.1823 30.4655 13.1823 22.125 18.4718 16.9994C23.7614 11.8739 32.3688 11.8739 37.6583 16.9994C42.9479 22.125 42.9479 30.4655 37.6583 35.591Z" fill="#FED50D"/>
</svg>
